<svg xmlns="http://www.w3.org/2000/svg" viewBox="0 0 200 48" fill="none">
  <path d="M14.5 6L22.5 42H16.5L14 31H7L4.5 42H-1.5L6.5 6H14.5ZM13 26.5L10.5 15.5L8 26.5H13Z" fill="currentColor"/>
  <path d="M34.5 18.5C37 18.5 39 19.5 40.5 21.5L38 25C37 23.5 35.5 22.5 33.5 22.5C31 22.5 28.5 24.5 28.5 29C28.5 33.5 31 35.5 33.5 35.5C35.5 35.5 37 34.5 38 33L40.5 36.5C39 38.5 37 39.5 34.5 39.5C30 39.5 25.5 35.5 25.5 29C25.5 22.5 30 18.5 34.5 18.5Z" fill="currentColor"/>
  <path d="M53 6V42H47V6H53Z" fill="currentColor"/>
  <path d="M69 6L77 42H71L68.5 31H61.5L59 42H53L61 6H69ZM67.5 26.5L65 15.5L62.5 26.5H67.5Z" fill="currentColor"/>
  <path d="M80 6H88C93 6 96.5 8.5 96.5 13.5C96.5 17 94 19.5 91 20.5C94.5 21.5 97 24.5 97 28.5C97 34 93 37 87.5 37H80V6ZM86.5 20C89.5 20 91.5 18 91.5 14.5C91.5 11.5 89.5 10 86.5 10H85V20H86.5ZM87 33C90.5 33 92.5 30.5 92.5 27C92.5 23.5 90.5 21 87 21H85V33H87Z" fill="currentColor"/>
  <path d="M128 6V42H122V24.5L112 42H107L117 24L108 6H114L122 22V6H128Z" fill="currentColor"/>
  <path d="M140 6V42H134V6H140Z" fill="currentColor"/>
  <path d="M154 6L162 42H156L153.5 31H146.5L144 42H138L146 6H154ZM152.5 26.5L150 15.5L147.5 26.5H152.5Z" fill="currentColor"/>
  <path d="M166 6H178C183 6 187 10 187 15V33C187 38 183 42 178 42H166V6ZM177 38C180 38 182 35.5 182 32V16C182 12.5 180 10 177 10H171V38H177Z" fill="currentColor"/>
</svg>
